<?xml version="1.0" standalone="no"?>
<!DOCTYPE svg PUBLIC "-//W3C//DTD SVG 20010904//EN"
 "http://www.w3.org/TR/2001/REC-SVG-20010904/DTD/svg10.dtd">
<svg version="1.0" xmlns="http://www.w3.org/2000/svg"
 width="256.000000pt" height="256.000000pt" viewBox="0 0 256.000000 256.000000"
 preserveAspectRatio="xMidYMid meet">
<metadata>
Created by potrace 1.11, written by Peter Selinger 2001-2013
</metadata>
<g transform="translate(0.000000,256.000000) scale(0.100000,-0.100000)"
fill="#000000" stroke="none">
<path d="M2294 2541 c3 -5 -1 -12 -10 -15 -8 -3 -13 -10 -9 -15 3 -6 -4 -8
-16 -6 -12 2 -19 2 -16 -1 7 -8 -26 -42 -35 -37 -5 2 -8 -2 -8 -10 0 -8 -8
-14 -17 -13 -10 0 -17 -5 -15 -11 1 -7 -5 -13 -13 -13 -8 0 -19 -9 -25 -21 -8
-13 -17 -18 -28 -14 -9 3 -13 3 -10 -1 11 -10 -29 -47 -43 -39 -7 5 -10 4 -6
-2 4 -6 -3 -19 -16 -29 -21 -19 -21 -19 -7 1 14 19 14 20 -6 2 -11 -9 -25 -14
-29 -10 -5 5 -3 0 4 -9 11 -14 11 -18 1 -18 -7 0 -28 -11 -45 -25 -18 -13 -36
-21 -39 -17 -4 3 -4 -1 -1 -10 4 -11 0 -18 -14 -23 -13 -4 -18 -11 -14 -18 4
-7 -2 -5 -13 3 -10 8 -16 11 -12 6 10 -12 -28 -50 -41 -41 -7 3 -10 3 -9 -2 3
-10 -33 -53 -45 -53 -4 0 -20 -12 -34 -27 -14 -16 -20 -19 -12 -8 7 11 0 8
-15 -7 -15 -16 -31 -28 -37 -28 -6 0 -7 -4 -4 -10 3 -5 0 -10 -8 -10 -8 0 -22
-11 -31 -25 -9 -14 -23 -25 -31 -25 -8 0 -15 -4 -15 -10 0 -5 -7 -10 -15 -10
-8 0 -15 -5 -15 -11 0 -5 -4 -7 -10 -4 -5 3 -10 2 -10 -3 0 -6 -11 -13 -25
-16 -14 -4 -23 -11 -20 -17 4 -5 3 -8 -2 -7 -16 4 -53 -14 -47 -23 3 -5 2 -8
-3 -7 -14 4 -53 -13 -53 -23 0 -5 -3 -8 -7 -8 -20 3 -34 -2 -29 -10 5 -8 -29
-25 -46 -22 -5 1 -8 -4 -8 -9 0 -6 -7 -10 -15 -10 -8 0 -15 -4 -15 -9 0 -5
-11 -12 -25 -15 -16 -4 -23 -11 -19 -18 5 -7 0 -9 -14 -6 -12 4 -22 2 -22 -2
0 -5 -9 -12 -20 -15 -11 -4 -18 -11 -15 -16 3 -5 -1 -6 -9 -3 -9 3 -16 1 -16
-5 0 -6 -7 -11 -15 -11 -9 0 -18 -7 -22 -16 -5 -13 -7 -13 -14 -2 -7 10 -9 11
-9 0 0 -7 -4 -10 -10 -7 -5 3 -7 0 -4 -9 4 -11 0 -14 -15 -11 -14 2 -21 -1
-21 -11 0 -8 -3 -13 -7 -12 -17 3 -61 -21 -67 -37 -5 -14 -9 -15 -21 -5 -12
10 -15 9 -15 -4 0 -9 -7 -16 -16 -16 -8 0 -13 -4 -9 -9 3 -6 -4 -8 -15 -6 -11
2 -20 -1 -20 -6 0 -6 -5 -7 -10 -4 -6 4 -9 1 -8 -7 2 -7 -2 -12 -9 -11 -8 2
-10 -4 -6 -14 5 -11 3 -14 -6 -8 -10 6 -11 3 -3 -12 7 -11 7 -25 1 -35 -6 -11
-5 -19 2 -24 8 -5 9 -3 4 6 -6 9 -4 11 4 6 9 -6 8 -13 -6 -29 -10 -11 -13 -17
-7 -14 7 4 15 0 18 -9 5 -12 2 -15 -10 -10 -13 5 -14 3 -7 -6 6 -7 9 -21 8
-30 -2 -10 2 -18 8 -18 9 0 9 -2 0 -8 -10 -6 -11 -30 -3 -52 1 -3 1 -9 0 -15
-8 -38 -8 -45 3 -45 8 0 8 -3 -2 -9 -10 -7 -11 -13 -1 -31 9 -17 9 -24 0 -30
-15 -10 -15 -21 2 -31 8 -6 9 -9 1 -9 -12 0 -12 -24 0 -36 4 -4 2 -13 -4 -20
-7 -8 -7 -14 1 -19 8 -5 8 -11 -1 -21 -8 -10 -8 -18 0 -27 8 -10 7 -17 -1 -25
-9 -9 -9 -12 1 -12 10 0 11 -3 3 -13 -7 -8 -7 -18 -2 -27 5 -8 5 -21 1 -29 -8
-19 -7 -88 2 -97 3 -4 2 -15 -4 -25 -5 -11 -6 -19 -1 -19 10 0 8 -42 -3 -59
-3 -6 -1 -11 5 -11 7 0 8 -6 1 -19 -6 -10 -7 -22 -3 -26 10 -10 9 -29 -3 -37
-6 -5 -6 -8 2 -8 6 0 9 -9 5 -22 -4 -16 -2 -19 9 -13 8 5 5 -2 -6 -16 -11 -13
-13 -18 -4 -12 12 10 18 10 27 1 9 -9 12 -9 12 0 0 9 5 10 18 4 9 -5 29 -9 44
-8 14 1 24 -2 22 -6 -2 -4 4 -6 13 -6 10 1 31 -2 46 -6 16 -4 26 -3 23 2 -3 5
6 7 19 4 14 -2 25 -9 25 -16 0 -6 5 -4 10 4 9 13 10 13 10 0 0 -13 1 -13 10 0
6 10 10 11 10 3 0 -7 5 -13 11 -13 6 0 7 6 2 13 -4 6 4 5 19 -5 19 -12 28 -14
37 -5 8 8 11 8 11 0 0 -6 9 -9 20 -6 11 3 20 1 20 -3 0 -5 18 -9 40 -8 23 0
43 -2 45 -6 2 -3 25 -5 50 -3 33 3 45 0 39 -8 -5 -8 -2 -9 12 -1 10 6 27 7 40
2 12 -5 25 -6 28 -3 3 4 6 2 6 -4 0 -5 23 -9 50 -8 31 1 46 -2 38 -7 -8 -5 2
-7 25 -5 20 3 37 0 37 -6 0 -5 6 -4 14 2 8 7 17 8 19 3 3 -4 28 -8 55 -7 41 1
49 -2 44 -15 -5 -13 -3 -13 11 -1 9 7 17 9 17 4 0 -5 9 -9 20 -9 11 0 20 5 20
11 0 5 4 4 9 -4 6 -9 33 -15 77 -17 38 -1 69 -3 69 -4 0 -1 15 -3 33 -4 32 -2
53 16 57 49 6 40 19 74 28 68 6 -4 8 0 4 10 -3 9 -2 19 4 23 6 3 8 12 5 20 -3
8 -2 14 2 14 4 0 9 12 10 27 1 15 9 31 17 35 8 5 12 15 8 24 -3 8 3 24 12 34
10 11 15 23 12 26 -3 4 0 16 8 28 8 11 15 25 15 31 0 5 -5 3 -10 -5 -6 -9 -10
-10 -10 -3 0 7 8 17 18 22 9 6 13 11 8 11 -5 0 -3 6 3 13 6 8 12 22 14 33 1
10 6 25 10 32 5 6 5 17 2 22 -3 6 -2 10 3 10 6 0 13 7 16 16 4 10 2 13 -7 9
-6 -4 -5 -1 4 7 9 7 14 23 13 36 -3 13 2 25 11 28 8 4 13 10 10 14 -3 5 -1 11
4 14 5 4 8 17 7 31 -2 13 0 22 4 20 10 -6 22 24 14 36 -3 5 0 9 6 9 6 0 9 4 5
9 -3 5 0 13 6 16 5 4 8 13 5 21 -3 9 1 14 12 14 15 0 15 2 2 10 -11 7 -11 10
-2 10 7 0 11 4 7 9 -3 5 2 17 11 25 10 10 11 16 3 16 -8 0 -9 3 0 13 6 8 8 17
4 20 -3 4 -1 7 6 7 7 0 10 4 7 9 -4 5 -1 11 5 13 6 2 12 16 12 31 0 15 4 27
10 27 6 0 7 3 4 7 -4 3 0 17 9 31 11 17 12 22 3 16 -12 -6 -12 -5 0 9 7 9 11
23 8 31 -4 9 -1 13 6 10 8 -3 13 6 15 23 1 16 7 29 12 31 6 2 6 10 0 23 -6 10
-8 19 -4 19 3 0 0 8 -7 17 -10 11 -10 14 -1 9 6 -4 12 -2 12 3 0 6 -5 11 -11
11 -5 0 -7 4 -4 10 3 5 1 18 -4 28 -7 13 -7 22 1 30 9 9 9 12 1 12 -7 0 -10 9
-8 20 2 11 0 20 -5 20 -5 0 -5 13 0 30 5 17 5 28 0 25 -5 -3 -11 -1 -15 5 -3
5 -2 10 3 10 5 0 9 7 9 15 0 8 -4 15 -9 15 -5 0 -4 9 2 20 7 13 7 20 1 20 -6
0 -9 14 -7 30 2 17 -1 30 -6 30 -6 0 -8 9 -5 20 3 11 0 20 -5 20 -6 0 -5 6 2
15 7 9 8 15 2 15 -5 0 -8 10 -4 22 3 14 2 19 -6 14 -7 -4 -12 -2 -12 3 0 6 5
11 10 11 6 0 10 5 10 11 0 5 -4 8 -9 5 -12 -8 -8 27 4 36 6 5 5 8 -3 8 -7 0
-10 5 -7 10 3 6 1 10 -6 10 -10 0 -10 3 -1 12 8 8 8 17 0 31 -7 15 -7 22 3 28
12 7 12 9 0 9 -8 0 -11 6 -7 16 6 15 4 15 -11 3 -13 -11 -15 -11 -9 -1 11 18
14 72 5 78 -4 2 -6 18 -4 34 3 19 -1 30 -8 31 -7 0 -3 4 8 9 14 6 16 9 4 9
-15 1 -17 12 -20 104 -1 20 -5 37 -10 37 -5 0 -6 7 -3 15 3 8 -1 21 -9 30 -17
16 -32 20 -23 6z"/>
<path d="M750 470 c-10 -18 -14 -20 -21 -9 -6 9 -9 10 -9 2 0 -6 -9 -10 -20
-8 -11 2 -20 0 -20 -6 0 -5 -4 -9 -10 -9 -5 0 -7 8 -4 18 5 14 4 14 -4 3 -6
-8 -21 -16 -34 -18 -13 -2 -24 -8 -26 -13 -2 -6 -8 -10 -13 -10 -6 0 -7 6 -3
13 6 8 3 8 -9 -2 -9 -7 -23 -11 -32 -8 -8 4 -17 2 -20 -3 -4 -6 -15 -10 -26
-10 -12 0 -17 -4 -13 -11 5 -8 2 -9 -12 -1 -14 8 -21 6 -32 -6 -7 -10 -11 -11
-7 -4 3 6 1 12 -4 12 -6 0 -11 -5 -11 -11 0 -8 -6 -7 -17 2 -11 10 -14 10 -9
2 7 -12 -24 -19 -63 -14 -8 2 -10 -2 -5 -10 5 -9 2 -10 -9 -6 -10 4 -17 2 -17
-5 0 -7 -5 -6 -15 2 -11 9 -15 9 -15 1 0 -7 -4 -9 -10 -6 -5 3 -10 2 -10 -4 0
-5 -12 -10 -28 -11 -65 -2 -80 -5 -75 -13 3 -5 -3 -8 -13 -6 -11 1 -26 -1 -34
-4 -8 -4 -26 -9 -40 -11 -14 -3 -27 -5 -30 -6 -3 -2 -7 -2 -10 -2 -3 0 -6 -8
-6 -19 0 -10 4 -19 8 -19 4 0 8 -9 8 -21 0 -13 4 -18 12 -13 8 5 9 2 5 -9 -3
-9 -2 -19 4 -22 5 -4 7 -11 4 -16 -4 -5 -1 -9 5 -9 6 0 9 -4 5 -9 -3 -5 2 -16
10 -24 8 -9 15 -25 15 -36 0 -11 5 -23 10 -26 6 -4 8 -10 5 -14 -2 -5 3 -18
13 -29 17 -20 18 -20 42 -2 14 10 28 16 32 13 5 -2 7 1 6 7 -2 7 6 17 17 23
11 7 23 16 26 20 3 5 9 8 13 8 20 -3 26 0 21 9 -5 9 15 15 37 11 4 0 4 7 1 15
-4 11 -2 15 8 12 7 -2 23 6 36 20 12 13 27 21 33 17 6 -3 9 -1 8 7 -2 7 3 12
10 10 6 -1 12 2 12 8 0 5 6 10 14 10 8 0 17 7 20 16 4 9 9 14 12 11 4 -3 15 4
26 16 11 12 16 16 13 9 -6 -11 -3 -11 13 -1 12 7 20 18 19 23 -1 6 4 10 11 9
6 -2 12 2 12 8 0 6 7 9 15 5 9 -3 15 0 15 9 0 8 5 15 11 15 5 0 7 6 3 13 -5 7
0 6 11 -3 11 -9 16 -10 11 -2 -4 7 -2 12 4 12 7 0 21 10 32 23 11 12 16 15 12
7 -4 -9 1 -7 14 5 34 32 52 46 52 40 0 -3 10 3 22 15 16 15 19 23 11 31 -8 8
-14 5 -23 -11z"/>
</g>
</svg>
